<?xml version="1.0" standalone="no"?>
<!DOCTYPE svg PUBLIC "-//W3C//DTD SVG 20010904//EN"
 "http://www.w3.org/TR/2001/REC-SVG-20010904/DTD/svg10.dtd">
<svg version="1.0" xmlns="http://www.w3.org/2000/svg"
 width="700.000000pt" height="700.000000pt" viewBox="0 0 700.000000 700.000000"
 preserveAspectRatio="xMidYMid meet">
<metadata>
Created by potrace 1.11, written by Peter Selinger 2001-2013
</metadata>
<g transform="translate(0.000000,700.000000) scale(0.100000,-0.100000)"
fill="#000000" stroke="none">
<path d="M3445 5634 c-28 -15 -79 -42 -115 -61 -36 -19 -103 -55 -150 -80
-189 -101 -355 -189 -435 -233 -27 -15 -88 -48 -135 -72 -219 -117 -274 -146
-395 -211 -183 -98 -257 -137 -360 -192 -49 -26 -117 -62 -150 -80 -33 -18
-105 -56 -160 -85 -55 -29 -113 -61 -130 -70 -16 -10 -75 -41 -130 -70 -111
-59 -217 -115 -315 -168 -36 -19 -108 -57 -160 -84 -52 -28 -113 -61 -135 -73
-22 -12 -89 -48 -150 -80 -60 -32 -123 -66 -140 -75 -16 -10 -73 -40 -125 -68
-87 -46 -179 -95 -238 -127 l-24 -13 25 -14 c13 -7 42 -23 63 -34 22 -12 215
-124 429 -249 396 -231 426 -249 504 -293 25 -14 68 -38 95 -55 28 -16 65 -38
81 -47 17 -10 68 -40 115 -67 l85 -49 -2 -270 c0 -148 -3 -278 -6 -289 -20
-89 133 -189 403 -264 41 -11 93 -23 115 -27 22 -3 43 -8 47 -10 12 -7 276
-52 403 -68 22 -3 65 -8 95 -12 30 -4 66 -8 80 -9 14 -1 61 -5 105 -9 44 -4
100 -9 125 -11 57 -5 225 -15 355 -20 137 -6 657 -6 785 0 147 7 286 15 345
20 28 2 82 7 120 10 324 27 692 90 910 157 236 72 360 164 337 251 -4 17 -8
149 -7 292 l1 260 199 123 c110 67 228 140 262 162 35 22 65 40 69 40 3 0 17
9 31 20 14 11 31 20 37 20 8 0 11 -84 11 -292 l0 -293 -28 -14 c-95 -47 -111
-220 -28 -289 9 -7 35 -22 59 -33 140 -66 293 87 235 232 -14 36 -73 99 -92
99 -4 0 -7 153 -7 340 l-1 339 61 32 c34 18 157 86 275 151 118 65 217 118
222 118 4 0 9 3 11 8 2 4 20 16 41 26 20 11 36 20 35 21 -3 2 -244 131 -403
215 -55 29 -122 65 -150 80 -27 15 -90 49 -140 75 -49 26 -112 60 -140 75 -27
15 -90 49 -140 75 -49 26 -112 60 -140 75 -27 15 -95 51 -150 80 -55 29 -122
65 -150 80 -27 15 -95 51 -150 80 -55 29 -113 60 -130 70 -16 10 -79 43 -140
75 -114 60 -127 67 -385 205 -215 115 -272 146 -370 197 -47 25 -107 58 -135
73 -27 15 -95 51 -150 80 -55 29 -122 65 -150 80 -27 15 -99 53 -160 85 -60
32 -154 82 -208 112 -54 29 -101 53 -105 53 -4 0 -30 -12 -57 -26z m391 -1518
c73 -4 145 -9 160 -11 16 -2 63 -6 104 -10 41 -3 82 -8 90 -10 8 -2 38 -6 65
-10 28 -3 73 -10 100 -15 28 -5 64 -11 80 -14 17 -2 53 -9 80 -16 28 -6 61
-14 75 -16 103 -19 321 -89 460 -149 198 -85 341 -177 457 -293 l53 -53 0 -70
0 -70 -67 56 c-38 30 -73 59 -78 64 -35 27 -195 114 -275 149 -126 54 -334
123 -450 147 -8 2 -35 8 -60 14 -66 15 -277 51 -335 57 -27 3 -59 7 -70 9 -11
2 -56 7 -100 10 -44 4 -91 8 -104 11 -140 21 -836 21 -1041 0 -19 -2 -71 -7
-114 -11 -43 -4 -86 -8 -95 -10 -9 -1 -38 -6 -66 -9 -50 -7 -204 -31 -260 -42
-23 -4 -184 -41 -215 -49 -3 -1 -18 -5 -35 -10 -254 -66 -554 -209 -685 -326
-14 -12 -35 -31 -47 -42 l-23 -20 0 70 0 71 58 59 c89 89 165 143 313 221 241
128 608 237 934 277 28 4 59 8 71 10 11 2 52 6 90 10 38 4 80 9 94 10 14 2 90
7 170 10 80 4 146 8 147 9 5 4 404 -2 519 -8z m164 -1450 c216 -8 406 -20 505
-31 16 -2 62 -6 100 -10 81 -8 125 -13 176 -20 20 -3 54 -8 74 -10 105 -14
286 -53 376 -81 158 -50 188 -116 78 -172 -95 -47 -346 -101 -614 -132 -55 -6
-111 -13 -125 -15 -14 -2 -70 -7 -125 -11 -55 -3 -116 -8 -135 -9 -333 -27
-1287 -27 -1620 0 -25 2 -88 6 -140 10 -52 4 -106 8 -120 10 -14 2 -47 6 -75
9 -142 17 -203 24 -232 30 -11 3 -43 8 -70 11 -70 10 -249 53 -313 76 -30 11
-70 33 -89 48 -32 27 -34 30 -22 58 22 53 136 97 366 142 55 11 123 22 150 26
28 3 64 8 81 11 17 3 46 6 65 8 19 2 57 7 84 10 28 3 79 8 115 11 36 2 94 7
130 10 117 10 232 15 435 21 110 4 201 7 202 8 5 4 593 -2 743 -8z"/>
<path d="M6129 2313 c-1 -32 -3 -67 -4 -78 -2 -11 -6 -63 -9 -115 -3 -53 -8
-120 -11 -150 -2 -30 -7 -91 -10 -135 -3 -44 -8 -108 -10 -142 -3 -35 -7 -91
-10 -125 -2 -35 -7 -99 -10 -143 l-5 -80 22 30 c44 62 150 157 195 177 56 25
128 30 163 13 l25 -13 0 409 c0 225 -2 409 -5 409 -4 0 -31 -7 -61 -16 -70
-22 -186 -22 -229 0 -18 9 -35 16 -37 16 -1 0 -4 -26 -4 -57z"/>
</g>
</svg>
